<svg width="19" height="19" viewBox="0 0 19 19" fill="none" xmlns="http://www.w3.org/2000/svg">
<path d="M5.00049 2.09232C5.56608 2.09232 5.96082 2.09276 6.26904 2.11478C6.57171 2.13641 6.74739 2.17742 6.88135 2.23587C7.27725 2.40861 7.59338 2.72473 7.76611 3.12064C7.8245 3.25458 7.86462 3.43042 7.88623 3.73294C7.90824 4.04108 7.90869 4.43518 7.90869 5.00052C7.90869 5.56611 7.90825 5.96085 7.88623 6.26907C7.8646 6.57167 7.82454 6.74743 7.76611 6.88138C7.59337 7.2773 7.27727 7.5934 6.88135 7.76614C6.7474 7.82457 6.57164 7.86463 6.26904 7.88626C5.96082 7.90828 5.56608 7.90872 5.00049 7.90872C4.43515 7.90872 4.04105 7.90827 3.73291 7.88626C3.43039 7.86465 3.25455 7.82453 3.12061 7.76614C2.7247 7.59341 2.40858 7.27728 2.23584 6.88138C2.17739 6.74742 2.13638 6.57174 2.11475 6.26907C2.09273 5.96085 2.09229 5.56611 2.09229 5.00052C2.09229 4.43521 2.09274 4.04108 2.11475 3.73294C2.13637 3.43034 2.17743 3.25459 2.23584 3.12064C2.40858 2.72471 2.72468 2.40861 3.12061 2.23587C3.25456 2.17746 3.43031 2.1364 3.73291 2.11478C4.04104 2.09277 4.43518 2.09232 5.00049 2.09232Z" stroke="black" stroke-opacity="0.56" stroke-width="1.1415"/>
<path d="M5.00049 10.3546C5.56608 10.3546 5.96082 10.355 6.26904 10.3771C6.57171 10.3987 6.74739 10.4397 6.88135 10.4982C7.27725 10.6709 7.59338 10.987 7.76611 11.3829C7.8245 11.5169 7.86462 11.6927 7.88623 11.9952C7.90824 12.3034 7.90869 12.6975 7.90869 13.2628C7.90869 13.8284 7.90825 14.2231 7.88623 14.5314C7.8646 14.834 7.82454 15.0097 7.76611 15.1437C7.59337 15.5396 7.27727 15.8557 6.88135 16.0284C6.7474 16.0869 6.57164 16.1269 6.26904 16.1485C5.96082 16.1706 5.56608 16.171 5.00049 16.171C4.43515 16.171 4.04105 16.1706 3.73291 16.1485C3.43039 16.1269 3.25455 16.0868 3.12061 16.0284C2.7247 15.8557 2.40858 15.5396 2.23584 15.1437C2.17739 15.0097 2.13638 14.834 2.11475 14.5314C2.09273 14.2231 2.09229 13.8284 2.09229 13.2628C2.09229 12.6975 2.09274 12.3034 2.11475 11.9952C2.13637 11.6926 2.17743 11.5169 2.23584 11.3829C2.40858 10.987 2.72468 10.6709 3.12061 10.4982C3.25456 10.4397 3.43031 10.3987 3.73291 10.3771C4.04104 10.3551 4.43518 10.3546 5.00049 10.3546Z" stroke="black" stroke-opacity="0.56" stroke-width="1.1415"/>
<path d="M13.2628 2.09232C13.8284 2.09232 14.2232 2.09276 14.5314 2.11478C14.834 2.13641 15.0097 2.17742 15.1437 2.23587C15.5396 2.40861 15.8557 2.72473 16.0284 3.12064C16.0868 3.25458 16.1269 3.43042 16.1486 3.73294C16.1706 4.04108 16.171 4.43518 16.171 5.00052C16.171 5.56611 16.1706 5.96085 16.1486 6.26907C16.1269 6.57167 16.0869 6.74743 16.0284 6.88138C15.8557 7.2773 15.5396 7.5934 15.1437 7.76614C15.0097 7.82457 14.834 7.86463 14.5314 7.88626C14.2232 7.90828 13.8284 7.90872 13.2628 7.90872C12.6975 7.90872 12.3034 7.90827 11.9952 7.88626C11.6927 7.86465 11.5169 7.82453 11.3829 7.76614C10.987 7.59341 10.6709 7.27728 10.4982 6.88138C10.4397 6.74742 10.3987 6.57174 10.3771 6.26907C10.3551 5.96085 10.3546 5.56611 10.3546 5.00052C10.3546 4.43521 10.3551 4.04108 10.3771 3.73294C10.3987 3.43034 10.4398 3.25459 10.4982 3.12064C10.6709 2.72471 10.987 2.40861 11.3829 2.23587C11.5169 2.17746 11.6926 2.1364 11.9952 2.11478C12.3034 2.09277 12.6975 2.09232 13.2628 2.09232Z" stroke="black" stroke-opacity="0.56" stroke-width="1.1415"/>
<path d="M13.2628 10.3546C13.8284 10.3546 14.2232 10.355 14.5314 10.3771C14.834 10.3987 15.0097 10.4397 15.1437 10.4982C15.5396 10.6709 15.8557 10.987 16.0284 11.3829C16.0868 11.5169 16.1269 11.6927 16.1486 11.9952C16.1706 12.3034 16.171 12.6975 16.171 13.2628C16.171 13.8284 16.1706 14.2231 16.1486 14.5314C16.1269 14.834 16.0869 15.0097 16.0284 15.1437C15.8557 15.5396 15.5396 15.8557 15.1437 16.0284C15.0097 16.0869 14.834 16.1269 14.5314 16.1485C14.2232 16.1706 13.8284 16.171 13.2628 16.171C12.6975 16.171 12.3034 16.1706 11.9952 16.1485C11.6927 16.1269 11.5169 16.0868 11.3829 16.0284C10.987 15.8557 10.6709 15.5396 10.4982 15.1437C10.4397 15.0097 10.3987 14.834 10.3771 14.5314C10.3551 14.2231 10.3546 13.8284 10.3546 13.2628C10.3546 12.6975 10.3551 12.3034 10.3771 11.9952C10.3987 11.6926 10.4398 11.5169 10.4982 11.3829C10.6709 10.987 10.987 10.6709 11.3829 10.4982C11.5169 10.4397 11.6926 10.3987 11.9952 10.3771C12.3034 10.3551 12.6975 10.3546 13.2628 10.3546Z" stroke="black" stroke-opacity="0.56" stroke-width="1.1415"/>
</svg>
